<?xml version="1.0" encoding="UTF-8" standalone="no"?>
<!-- Created with Inkscape (http://www.inkscape.org/) -->

<svg
   xmlns:dc="http://purl.org/dc/elements/1.1/"
   xmlns:cc="http://creativecommons.org/ns#"
   xmlns:rdf="http://www.w3.org/1999/02/22-rdf-syntax-ns#"
   xmlns:svg="http://www.w3.org/2000/svg"
   xmlns="http://www.w3.org/2000/svg"
   xmlns:sodipodi="http://sodipodi.sourceforge.net/DTD/sodipodi-0.dtd"
   xmlns:inkscape="http://www.inkscape.org/namespaces/inkscape"
   width="307.75137"
   height="101.475"
   viewBox="0 0 307.75137 101.475"
   id="svg4261"
   version="1.1"
   inkscape:version="0.91 r13725"
   sodipodi:docname="LogoSealcode — kopia.svg">
  <metadata
     id="metadata17">
    <rdf:RDF>
      <cc:Work
         rdf:about="">
        <dc:format>image/svg+xml</dc:format>
        <dc:type
           rdf:resource="http://purl.org/dc/dcmitype/StillImage" />
      </cc:Work>
    </rdf:RDF>
  </metadata>
  <sodipodi:namedview
     pagecolor="#ffffff"
     bordercolor="#666666"
     borderopacity="1"
     objecttolerance="10"
     gridtolerance="10"
     guidetolerance="10"
     inkscape:pageopacity="0"
     inkscape:pageshadow="2"
     inkscape:window-width="1920"
     inkscape:window-height="1017"
     id="namedview15"
     showgrid="false"
     inkscape:zoom="1.1275336"
     inkscape:cx="153.87569"
     inkscape:cy="50.737499"
     inkscape:window-x="-8"
     inkscape:window-y="-8"
     inkscape:window-maximized="1"
     inkscape:current-layer="layer1" />
  <defs
     id="defs4263" />
  <g
     inkscape:label="Layer 1"
     inkscape:groupmode="layer"
     id="layer1"
     transform="translate(-178.71576,-264.48185)">
    <g
       id="g4175">
      <path
         id="rect4211"
         d="m -89.451492,356.33588 57.611416,0 0,57.61141 -57.611416,0 z"
         style="clip-rule:evenodd;opacity:1;fill:#5294a1;fill-opacity:1;fill-rule:evenodd;stroke:none;stroke-width:0.245;stroke-miterlimit:4;stroke-dasharray:none;stroke-opacity:1;image-rendering:optimizeQuality;shape-rendering:geometricPrecision;text-rendering:geometricPrecision"
         transform="matrix(0.70710678,-0.70710678,0.70710678,0.70710678,0,0)" />
      <path
         id="rect4211-3"
         d="m -73.210495,372.57709 57.611416,0 0,57.61141 -57.611416,0 z"
         style="clip-rule:evenodd;opacity:1;fill:#5294a1;fill-opacity:1;fill-rule:evenodd;stroke:none;stroke-width:0.245;stroke-miterlimit:4;stroke-dasharray:none;stroke-opacity:1;image-rendering:optimizeQuality;shape-rendering:geometricPrecision;text-rendering:geometricPrecision"
         transform="matrix(0.70710678,-0.70710678,0.70710678,0.70710678,0,0)" />
      <path
         id="rect4164"
         d="m -73.206711,372.58957 41.333756,0 0,41.33375 -41.333756,0 z"
         style="clip-rule:evenodd;opacity:1;fill:#ffffff;fill-opacity:1;fill-rule:evenodd;stroke:none;stroke-width:0.06914444;stroke-miterlimit:4;stroke-dasharray:none;stroke-opacity:1;image-rendering:optimizeQuality;shape-rendering:geometricPrecision;text-rendering:geometricPrecision"
         transform="matrix(0.70710678,-0.70710678,0.70710678,0.70710678,0,0)" />
      <path
         id="rect4211-6"
         d="m -73.4048,372.24673 20.219099,0 0,20.2191 -20.219099,0 z"
         style="clip-rule:evenodd;opacity:1;fill:#8bbac4;fill-opacity:1;fill-rule:evenodd;stroke:none;stroke-width:0.245;stroke-miterlimit:4;stroke-dasharray:none;stroke-opacity:1;image-rendering:optimizeQuality;shape-rendering:geometricPrecision;text-rendering:geometricPrecision"
         transform="matrix(0.70710678,-0.70710678,0.70710678,0.70710678,0,0)" />
      <g
         id="text4191-1"
         style="font-style:normal;font-variant:normal;font-weight:normal;font-stretch:normal;font-size:5.86620808px;line-height:125%;font-family:monospace;-inkscape-font-specification:monospace;letter-spacing:0px;word-spacing:0px;writing-mode:lr-tb;clip-rule:evenodd;fill:#65397c;fill-opacity:1;fill-rule:evenodd;stroke:none;stroke-width:1px;stroke-linecap:butt;stroke-linejoin:miter;stroke-opacity:1;image-rendering:optimizeQuality;shape-rendering:geometricPrecision;text-rendering:geometricPrecision">
        <path
           id="path4163"
           style="font-style:normal;font-variant:normal;font-weight:600;font-stretch:normal;font-size:46.92966461px;font-family:'Source Code Pro';-inkscape-font-specification:'Source Code Pro Semi-Bold';fill:#65397c;fill-opacity:1"
           d="m 327.704,299.90337 q 0,5.04127 -4.28508,8.20353 -4.26217,3.13933 -11.59493,3.13933 -4.23925,0 -7.4015,-0.73327 -3.13934,-0.75619 -5.88912,-1.90194 l 0,-8.18061 0.96242,0 q 2.72687,2.17692 6.09536,3.34558 3.3914,1.16865 6.50782,1.16865 0.80202,0 2.10817,-0.13749 1.30615,-0.13748 2.13108,-0.45829 1.00826,-0.41247 1.64988,-1.03117 0.66453,-0.6187 0.66453,-1.83319 0,-1.12283 -0.96243,-1.92485 -0.93951,-0.82494 -2.7727,-1.26032 -1.92485,-0.4583 -4.07885,-0.84785 -2.13108,-0.41247 -4.0101,-1.03117 -4.308,-1.39781 -6.20993,-3.78095 -1.87902,-2.40607 -1.87902,-5.95787 0,-4.7663 4.26217,-7.76814 4.28508,-3.02477 10.99914,-3.02477 3.36848,0 6.64531,0.66453 3.29974,0.64162 5.7058,1.62696 l 0,7.8598 -0.93951,0 q -2.06233,-1.64987 -5.06418,-2.74978 -2.97894,-1.12283 -6.09536,-1.12283 -1.09991,0 -2.19983,0.1604 -1.077,0.13749 -2.08525,0.54996 -0.89368,0.34372 -1.5353,1.05408 -0.64161,0.68745 -0.64161,1.58113 0,1.35198 1.03116,2.08525 1.03117,0.71036 3.89553,1.30615 1.87902,0.38955 3.59764,0.75619 1.74153,0.36664 3.73512,1.00826 3.91845,1.28323 5.77455,3.50597 1.87902,2.19983 1.87902,5.72872 z" />
        <path
           id="path4165"
           style="font-style:normal;font-variant:normal;font-weight:600;font-stretch:normal;font-size:46.92966461px;font-family:'Source Code Pro';-inkscape-font-specification:'Source Code Pro Semi-Bold';fill:#65397c;fill-opacity:1"
           d="m 358.43285,310.62753 -24.67932,0 0,-34.12025 24.67932,0 0,6.59949 -15.92584,0 0,5.88912 14.7801,0 0,6.59948 -14.7801,0 0,8.43268 15.92584,0 0,6.59948 z" />
        <path
           id="path4167"
           style="font-style:normal;font-variant:normal;font-weight:600;font-stretch:normal;font-size:46.92966461px;font-family:'Source Code Pro';-inkscape-font-specification:'Source Code Pro Semi-Bold';fill:#65397c;fill-opacity:1"
           d="m 397.36522,310.62753 -9.0972,0 -2.36023,-6.89737 -12.64901,0 -2.36024,6.89737 -8.86805,0 12.60318,-34.12025 10.12837,0 12.60318,34.12025 z m -13.58852,-13.15314 -4.19342,-12.23654 -4.19342,12.23654 8.38684,0 z" />
        <path
           id="path4169"
           style="font-style:normal;font-variant:normal;font-weight:600;font-stretch:normal;font-size:46.92966461px;font-family:'Source Code Pro';-inkscape-font-specification:'Source Code Pro Semi-Bold';fill:#65397c;fill-opacity:1"
           d="m 426.92542,310.62753 -24.61058,0 0,-34.12025 8.79931,0 0,27.52077 15.81127,0 0,6.59948 z" />
      </g>
      <g
         id="text4199-4"
         style="font-style:normal;font-weight:normal;font-size:5.86620808px;line-height:125%;font-family:sans-serif;letter-spacing:0px;word-spacing:0px;writing-mode:lr-tb;clip-rule:evenodd;fill:#65397c;fill-opacity:1;fill-rule:evenodd;stroke:none;stroke-width:1px;stroke-linecap:butt;stroke-linejoin:miter;stroke-opacity:1;image-rendering:optimizeQuality;shape-rendering:geometricPrecision;text-rendering:geometricPrecision">
        <path
           id="path4146"
           style="font-style:normal;font-variant:normal;font-weight:600;font-stretch:normal;font-size:46.92966461px;font-family:'Source Code Pro';-inkscape-font-specification:'Source Code Pro Semi-Bold';fill:#65397c;fill-opacity:1"
           d="m 316.28048,349.85719 q -3.80387,0 -7.03487,-1.12283 -3.20808,-1.12283 -5.52248,-3.34557 -2.3144,-2.22274 -3.59764,-5.5454 -1.26031,-3.32266 -1.26031,-7.67648 0,-4.05594 1.21448,-7.35568 1.21449,-3.29974 3.5289,-5.65997 2.22274,-2.26858 5.49957,-3.50598 3.29974,-1.2374 7.19527,-1.2374 2.15399,0 3.87261,0.25206 1.74153,0.22915 3.20808,0.6187 1.5353,0.43538 2.7727,0.98534 1.26032,0.52704 2.19983,0.98534 l 0,8.27227 -1.00825,0 q -0.64162,-0.54996 -1.62696,-1.30615 -0.96242,-0.75619 -2.19983,-1.48946 -1.26032,-0.73328 -2.72687,-1.23741 -1.46655,-0.50412 -3.13934,-0.50412 -1.8561,0 -3.52889,0.59578 -1.67278,0.57287 -3.09351,1.92485 -1.35197,1.30615 -2.19982,3.46015 -0.82494,2.154 -0.82494,5.22459 0,3.20808 0.89368,5.36208 0.9166,2.154 2.29149,3.3914 1.39781,1.26032 3.11642,1.81028 1.71862,0.52704 3.3914,0.52704 1.60404,0 3.16226,-0.48121 1.58112,-0.48122 2.91019,-1.30615 1.12282,-0.66453 2.08525,-1.42072 0.96242,-0.75619 1.58113,-1.30615 l 0.91659,0 0,8.15769 q -1.28323,0.57288 -2.45189,1.077 -1.16866,0.50413 -2.45189,0.87077 -1.67279,0.48121 -3.13934,0.73328 -1.46655,0.25206 -4.03302,0.25206 z" />
        <path
           id="path4148"
           style="font-style:normal;font-variant:normal;font-weight:600;font-stretch:normal;font-size:46.92966461px;font-family:'Source Code Pro';-inkscape-font-specification:'Source Code Pro Semi-Bold';fill:#65397c;fill-opacity:1"
           d="m 368.04519,332.14399 q 0,8.1577 -4.67464,12.96982 -4.67463,4.78921 -12.92399,4.78921 -8.22644,0 -12.90107,-4.78921 -4.67464,-4.81212 -4.67464,-12.96982 0,-8.22644 4.67464,-12.99273 4.67463,-4.78921 12.90107,-4.78921 8.20353,0 12.90108,4.78921 4.69755,4.76629 4.69755,12.99273 z m -11.66368,8.63891 q 1.28324,-1.55821 1.90194,-3.66638 0.6187,-2.13109 0.6187,-4.99544 0,-3.0706 -0.71036,-5.2246 -0.71036,-2.15399 -1.85611,-3.48306 -1.16865,-1.37489 -2.70395,-1.99359 -1.51238,-0.6187 -3.16225,-0.6187 -1.67279,0 -3.16226,0.59578 -1.46655,0.59579 -2.70395,1.97068 -1.14575,1.28324 -1.87902,3.55181 -0.71036,2.24566 -0.71036,5.22459 0,3.04768 0.68744,5.20168 0.71036,2.13108 1.85611,3.48306 1.14574,1.35198 2.68104,1.99359 1.5353,0.64162 3.231,0.64162 1.6957,0 3.23099,-0.64162 1.5353,-0.66453 2.68104,-2.03942 z" />
        <path
           id="path4150"
           style="font-style:normal;font-variant:normal;font-weight:600;font-stretch:normal;font-size:46.92966461px;font-family:'Source Code Pro';-inkscape-font-specification:'Source Code Pro Semi-Bold';fill:#65397c;fill-opacity:1"
           d="m 406.97756,332.16691 q 0,4.76629 -2.17691,8.54724 -2.17691,3.75804 -5.49957,5.77455 -2.49772,1.51238 -5.47666,2.10817 -2.97893,0.59579 -7.05778,0.59579 l -12.03031,0 0,-34.12025 12.37404,0 q 4.1705,0 7.19527,0.71036 3.02476,0.68745 5.0871,1.97068 3.52889,2.154 5.5454,5.82038 2.03942,3.64346 2.03942,8.59308 z m -9.0972,-0.0687 q 0,-3.36849 -1.23741,-5.75163 -1.21448,-2.40607 -3.87261,-3.75804 -1.35198,-0.66453 -2.7727,-0.89368 -1.39781,-0.25207 -4.23925,-0.25207 l -2.22274,0 0,21.35667 2.22274,0 q 3.13934,0 4.60589,-0.27498 1.46655,-0.29789 2.86436,-1.05409 2.40606,-1.37489 3.52889,-3.66638 1.12283,-2.3144 1.12283,-5.7058 z" />
        <path
           id="path4152"
           style="font-style:normal;font-variant:normal;font-weight:600;font-stretch:normal;font-size:46.92966461px;font-family:'Source Code Pro';-inkscape-font-specification:'Source Code Pro Semi-Bold';fill:#65397c;fill-opacity:1"
           d="m 438.37094,349.19266 -24.67932,0 0,-34.12025 24.67932,0 0,6.59948 -15.92584,0 0,5.88913 14.78009,0 0,6.59948 -14.78009,0 0,8.43267 15.92584,0 0,6.59949 z" />
        <path
           id="path4154"
           style="font-style:normal;font-variant:normal;font-weight:normal;font-stretch:normal;font-size:30.00000191px;font-family:'Bitstream Vera Sans Mono';-inkscape-font-specification:'Bitstream Vera Sans Mono';fill:#65397c;fill-opacity:1"
           d="m 450.16373,345.66238 0.52734,0 q 0.82031,0 1.40625,0.58594 0.58594,0.57129 0.58594,1.3916 0,0.84961 -0.60059,1.4209 -0.58593,0.57129 -1.3916,0.57129 l -0.52734,0 q -0.82032,0 -1.40625,-0.57129 -0.58594,-0.58594 -0.58594,-1.40625 0,-0.84961 0.58594,-1.4209 0.60058,-0.57129 1.40625,-0.57129 z" />
        <path
           id="path4156"
           style="font-style:normal;font-variant:normal;font-weight:normal;font-stretch:normal;font-size:30.00000191px;font-family:'Bitstream Vera Sans Mono';-inkscape-font-specification:'Bitstream Vera Sans Mono';fill:#65397c;fill-opacity:1"
           d="m 475.28581,342.87918 q 0,2.8125 -2.02148,4.80469 -2.00684,1.99219 -4.84863,1.99219 -2.8711,0 -4.87793,-1.99219 -2.00684,-2.00684 -2.00684,-4.80469 0,-2.8125 2.00684,-4.80469 2.00683,-2.00683 4.87793,-2.00683 2.84179,0 4.84863,1.99218 2.02148,1.99219 2.02148,4.81934 z m -1.24511,0 q 0,-2.31445 -1.65528,-3.94043 -1.64062,-1.62598 -3.98437,-1.62598 -2.34375,0 -3.99903,1.64063 -1.64062,1.62598 -1.64062,3.92578 0,2.28516 1.64062,3.92578 1.65528,1.64063 3.99903,1.64063 2.34375,0 3.98437,-1.62598 1.65528,-1.64062 1.65528,-3.94043 z" />
        <path
           id="path4158"
           style="font-style:normal;font-variant:normal;font-weight:normal;font-stretch:normal;font-size:30.00000191px;font-family:'Bitstream Vera Sans Mono';-inkscape-font-specification:'Bitstream Vera Sans Mono';fill:#65397c;fill-opacity:1"
           d="m 484.92448,336.50711 0,3.10547 q 2.40235,-2.16797 3.58887,-2.7832 1.20117,-0.62989 2.21192,-0.62989 1.09863,0 2.03613,0.74707 0.95215,0.73242 0.95215,1.11328 0,0.27832 -0.19043,0.46875 -0.17578,0.17579 -0.4541,0.17579 -0.14649,0 -0.24903,-0.0439 -0.10254,-0.0586 -0.38086,-0.33691 -0.51269,-0.5127 -0.89355,-0.70313 -0.38086,-0.19043 -0.74707,-0.19043 -0.80567,0 -1.94824,0.64453 -1.12793,0.64453 -3.92579,3.14942 l 0,6.73828 5.44922,0 q 0.45411,0 0.64454,0.17578 0.19042,0.16113 0.19042,0.43945 0,0.26367 -0.19042,0.43946 -0.19043,0.17578 -0.64454,0.17578 l -9.65332,0 q -0.43945,0 -0.62988,-0.16114 -0.19043,-0.17578 -0.19043,-0.43945 0,-0.24902 0.17578,-0.41015 0.19043,-0.17579 0.64453,-0.17579 l 2.97364,0 0,-10.2539 -2.27051,0 q -0.43946,0 -0.62988,-0.17578 -0.19043,-0.17579 -0.19043,-0.45411 0,-0.26367 0.17578,-0.43945 0.19043,-0.17578 0.64453,-0.17578 l 3.50097,0 z" />
        <path
           id="path4160"
           style="font-style:normal;font-variant:normal;font-weight:normal;font-stretch:normal;font-size:30.00000191px;font-family:'Bitstream Vera Sans Mono';-inkscape-font-specification:'Bitstream Vera Sans Mono';fill:#65397c;fill-opacity:1"
           d="m 508.52312,338.76297 0,-2.25586 2.88574,0 q 0.43945,0 0.62988,0.17578 0.19043,0.17578 0.19043,0.4541 0,0.26367 -0.19043,0.43946 -0.19043,0.17578 -0.62988,0.17578 l -1.65527,0 0,12.29004 q 0,1.23047 -0.52735,2.19726 -0.35156,0.64453 -1.17187,1.33301 -0.82031,0.68848 -1.49414,0.98145 -0.67383,0.29296 -1.80176,0.29296 l -3.48633,0 q -0.43945,0 -0.62988,-0.17578 -0.19043,-0.16113 -0.19043,-0.43945 0,-0.27832 0.19043,-0.4541 0.19043,-0.17578 0.62988,-0.17578 l 3.53027,0.0147 q 1.08399,0 1.94825,-0.55664 0.8789,-0.55665 1.45019,-1.62598 0.32227,-0.61524 0.32227,-1.56738 l 0,-3.69141 q -1.97754,2.70996 -5.09766,2.70996 -2.53418,0 -4.37988,-1.875 -1.83106,-1.88965 -1.83106,-4.54102 0,-2.65136 1.83106,-4.52636 1.8457,-1.875 4.37988,-1.875 3.12012,0 5.09766,2.69531 z m 0,3.70605 q 0,-2.16796 -1.49414,-3.66211 -1.4795,-1.49414 -3.54492,-1.49414 -2.06543,0 -3.54493,1.50879 -1.47949,1.49414 -1.47949,3.64746 0,2.16797 1.47949,3.67676 1.4795,1.49414 3.54493,1.49414 2.06542,0 3.54492,-1.49414 1.49414,-1.50879 1.49414,-3.67676 z" />
      </g>
    </g>
  </g>
</svg>
